<svg height="64" viewBox="0 0 64 64" width="64" xmlns="http://www.w3.org/2000/svg"><rect fill="#fff" height="64" rx="12" width="64"/><path d="m332.410156 228.164062h-134.167968c-2.804688 0-5.082032-2.277343-5.082032-5.085937 0-2.804687 2.277344-5.082031 5.082032-5.082031h97.96875c2.808593 0 5.082031-2.273438 5.082031-5.082032 0-2.804687-2.273438-5.082031-5.082031-5.082031h-10.585938c-1.917969-13.421875-9.855469-25.542969-24.554688-28.371093.386719-2.425782.59375-4.910157.59375-7.445313 0-25.777344-20.898437-46.671875-46.675781-46.671875-22.414062 0-41.136719 15.800781-45.640625 36.875v-.003906c-6.734375-3.765625-14.492187-5.910156-22.753906-5.910156-18.394531 0-34.304688 10.644531-41.90625 26.109374h-62.097656c-2.808594 0-5.082032 2.277344-5.082032 5.082032 0 2.808594 2.273438 5.085937 5.082032 5.085937h97.96875c2.804687 0 5.082031 2.273438 5.082031 5.082031 0 2.808594-2.277344 5.082032-5.082031 5.082032h-61.769532c-2.808593 0-5.082031 2.277344-5.082031 5.085937 0 2.804688 2.273438 5.082031 5.082031 5.082031h22.195313c4.554687 21.003907 23.246094 36.738282 45.609375 36.738282h115.59375c7.234375-1.308594 12.917969-5.535156 16.925781-11.324219h53.296875c2.808594 0 5.085938-2.273437 5.085938-5.082031s-2.277344-5.082032-5.085938-5.082032zm0 0" fill="#2f36fa" transform="matrix(.14 0 0 .14 6 6)"/></svg>